<svg xmlns:xlink="http://www.w3.org/1999/xlink" xmlns="http://www.w3.org/2000/svg" version="1.1"
	viewBox="0.0 0.0 540.0 540.0" fill="none" stroke="none" stroke-linecap="square"
	stroke-miterlimit="10">
	<clipPath id="p.0">
		<path d="m0 0l540.0 0l0 540.0l-540.0 0l0 -540.0z" clip-rule="nonzero" />
	</clipPath>
	<g>
		<!-- Field -->
		<path fill="#000000"
			d="m155 172.13217l189.13385 0l0 306.83466l-189.13385 0zm15.996948 15.996933l0 274.84076l157.13995 0l0 -274.84076z"
			fill-rule="evenodd" />
		<path fill="#000000" fill-opacity="0.0" d="m155 325.5495l189.13385 0" fill-rule="evenodd" />
		<path stroke="#000000" stroke-width="16.0" stroke-linejoin="round" stroke-linecap="butt"
			d="m155 325.5495l189.13385 0" fill-rule="evenodd" />
		<path fill="#000000"
			d="m196 325.54987l0 0c0 -29.136292 23.619629 -52.75589 52.75592 -52.75589l0 0c13.99173 0 27.4104 5.558197 37.304047 15.451843c9.893677 9.893646 15.451843 23.312317 15.451843 37.304047l0 0c0 29.136292 -23.619629 52.75592 -52.75589 52.75592l0 0c-29.136292 0 -52.75592 -23.619629 -52.75592 -52.75592zm15.810944 0l0 0c0 20.404144 16.540833 36.944977 36.944977 36.944977c20.404144 0 36.944977 -16.540833 36.944977 -36.944977c0 -20.404144 -16.540833 -36.944946 -36.944977 -36.944946l0 0c-20.404144 0 -36.944977 16.540802 -36.944977 36.944946z"
			fill-rule="evenodd" />
		<g id="p.1">
			<path fill="#000000" fill-opacity="0.0"
				d="m430 73.74456l-171.04044 -12.711765l-9.193176 123.6951l171.04044 12.711777z"
				fill-rule="evenodd" />
			<g
				transform="matrix(-0.5602630763063281 -0.04163889532108006 -0.0241371099490819 0.32476715624150954 430 49.47553627840228)">
				<clipPath id="p.2">
					<path d="m18.71403 77.12682l305.28598 0l0 380.87317l-305.28598 0z"
						clip-rule="evenodd" />
				</clipPath>
			</g>
		</g>
	</g>
	<!-- Crown -->
	<g>
		<path fill="#2F1500" opacity="1.000000" stroke="none"
			d=" M326.517914,161.354813   C306.706940,159.514816 287.351074,157.636627 267.966339,156.129715   C263.895233,155.813217 263.200531,154.147552 262.962158,150.562286   C261.165833,123.540710 259.145447,96.534058 257.231262,69.520172   C257.153748,68.426460 257.438324,67.307083 257.711334,64.698502   C263.141724,69.214600 267.816010,72.963219 272.336517,76.888855   C283.257629,86.372742 294.108948,95.937012 304.983856,105.474037   C307.908356,108.038734 309.852539,106.698586 312.033630,104.165482   C318.763062,96.349991 325.687286,88.701721 332.573883,81.022583   C333.662933,79.808189 334.948669,78.770195 336.773651,77.060150   C337.896393,79.162735 338.793976,80.781975 339.635559,82.429825   C344.772430,92.488403 349.930023,102.536659 355.006561,112.625648   C356.750336,116.091225 358.995209,116.699898 362.698273,115.367050   C378.679596,109.614838 394.762115,104.143425 410.816467,98.594803   C412.469696,98.023422 414.180481,97.618462 415.864563,97.136269   C416.182983,97.483536 416.501404,97.830803 416.819824,98.178070   C414.195557,102.235397 411.500671,106.249069 408.959534,110.357803   C399.336517,125.917061 389.430725,141.315201 380.290466,157.154297   C374.374542,167.406006 374.893097,167.666702 363.078369,166.102539   C351.045380,164.509476 339.001740,162.996689 326.517914,161.354813  M268.885559,117.603233   C269.478302,128.888046 270.071045,140.172852 270.659912,151.384277   C271.503693,151.631866 271.963013,151.844101 272.439667,151.895447   C303.362885,155.226212 334.289886,158.522171 365.207397,161.904831   C367.641083,162.171097 368.918915,161.732544 370.272430,159.352600   C379.065460,143.891479 388.135681,128.587967 397.120880,113.236214   C397.848022,111.993904 398.618896,110.777168 400.036591,108.456375   C388.431244,112.446381 377.957825,116.044456 367.486359,119.648041   C353.413452,124.491013 353.257233,124.592392 345.166748,111.842323   C340.937622,105.177536 337.373016,98.091118 333.173767,90.598267   C327.265808,97.488724 321.475311,104.111763 315.836823,110.861763   C311.715454,115.795547 307.743073,116.354836 302.670532,112.150024   C296.647186,107.157089 290.750580,102.011070 284.808990,96.919769   C279.051880,91.986511 273.307404,87.038521 266.476929,81.168488   C267.326630,93.914017 268.084564,105.283470 268.885559,117.603233  z" />
		<path fill="#FDDC17" opacity="1.000000" stroke="none"
			d=" M268.864014,117.128075   C268.084564,105.283470 267.326630,93.914017 266.476929,81.168488   C273.307404,87.038521 279.051880,91.986511 284.808990,96.919769   C290.750580,102.011070 296.647186,107.157089 302.670532,112.150024   C307.743073,116.354836 311.715454,115.795547 315.836823,110.861763   C321.475311,104.111763 327.265808,97.488724 333.173767,90.598267   C337.373016,98.091118 340.937622,105.177536 345.166748,111.842323   C353.257233,124.592392 353.413452,124.491013 367.486359,119.648041   C377.957825,116.044456 388.431244,112.446381 400.036591,108.456375   C398.618896,110.777168 397.848022,111.993904 397.120880,113.236214   C388.135681,128.587967 379.065460,143.891479 370.272430,159.352600   C368.918915,161.732544 367.641083,162.171097 365.207397,161.904831   C334.289886,158.522171 303.362885,155.226212 272.439667,151.895447   C271.963013,151.844101 271.503693,151.631866 270.659912,151.384277   C270.071045,140.172852 269.478302,128.888046 268.864014,117.128075  z" />

	</g>
</svg>